<?xml version="1.0" encoding="UTF-8" standalone="no"?>
<!-- Created with Inkscape (http://www.inkscape.org/) -->

<svg
   xmlns:dc="http://purl.org/dc/elements/1.1/"
   xmlns:cc="http://creativecommons.org/ns#"
   xmlns:rdf="http://www.w3.org/1999/02/22-rdf-syntax-ns#"
   xmlns:svg="http://www.w3.org/2000/svg"
   xmlns="http://www.w3.org/2000/svg"
   xmlns:sodipodi="http://sodipodi.sourceforge.net/DTD/sodipodi-0.dtd"
   xmlns:inkscape="http://www.inkscape.org/namespaces/inkscape"
   width="210mm"
   height="297mm"
   viewBox="0 0 210 297"
   version="1.1"
   id="svg8"
   inkscape:version="0.92.3 (d244b95, 2018-08-02)"
   sodipodi:docname="logo_kwadrat.svg">
  <defs
     id="defs2" />
  <sodipodi:namedview
     id="base"
     pagecolor="#ffffff"
     bordercolor="#666666"
     borderopacity="1.0"
     inkscape:pageopacity="0.0"
     inkscape:pageshadow="2"
     inkscape:zoom="0.5253601"
     inkscape:cx="229.17061"
     inkscape:cy="455.78869"
     inkscape:document-units="mm"
     inkscape:current-layer="layer1"
     showgrid="false"
     inkscape:window-width="1853"
     inkscape:window-height="1016"
     inkscape:window-x="67"
     inkscape:window-y="27"
     inkscape:window-maximized="1" />
  <metadata
     id="metadata5">
    <rdf:RDF>
      <cc:Work
         rdf:about="">
        <dc:format>image/svg+xml</dc:format>
        <dc:type
           rdf:resource="http://purl.org/dc/dcmitype/StillImage" />
        <dc:title></dc:title>
      </cc:Work>
    </rdf:RDF>
  </metadata>
  <g
     inkscape:label="Layer 1"
     inkscape:groupmode="layer"
     id="layer1">
    <path
       inkscape:connector-curvature="0"
       id="rect3713"
       d="m 101.89939,97.311847 v 2.908223 c 0,1.41278 -1.0974,2.55015 -2.460552,2.55015 h -45.71657 c -1.363152,0 -2.460561,-1.13737 -2.460561,-2.55015 v -2.908223 c 0,-1.412779 1.097409,-2.550143 2.460561,-2.550143 h 45.71657 c 1.363152,0 2.460552,1.137364 2.460552,2.550143 z"
       style="stroke-width:0.165692;fill:#000042;fill-opacity:1" />
    <path
       style="stroke-width:0.62623751;fill:#000042;fill-opacity:1"
       d="M 203.04492 411.86133 C 197.89285 411.86133 193.74414 416.15841 193.74414 421.49805 L 193.74414 432.49023 C 193.74414 437.82988 197.89285 442.12891 203.04492 442.12891 L 303.86328 442.12891 A 151.1811 151.1811 0 0 1 374.5957 411.86133 L 203.04492 411.86133 z "
       id="rect3713-6"
       transform="scale(0.26458333)" />
    <path
       style="stroke-width:0.62623751;fill:#000042;fill-opacity:1"
       d="M 203.04492 465.56641 C 197.89285 465.56641 193.74414 469.86544 193.74414 475.20508 L 193.74414 486.19727 C 193.74414 491.53691 197.89285 495.83594 203.04492 495.83594 L 260.76758 495.83594 A 151.1811 151.1811 0 0 1 279.92969 465.56641 L 203.04492 465.56641 z "
       transform="scale(0.26458333)"
       id="rect3713-7" />
    <path
       style="stroke-width:0.62623751;fill:#000042;fill-opacity:1"
       d="M 203.04492 519.27344 C 197.89285 519.27344 193.74414 523.57052 193.74414 528.91016 L 193.74414 539.90234 C 193.74414 545.24198 197.89285 549.54102 203.04492 549.54102 L 246.25586 549.54102 A 151.1811 151.1811 0 0 1 251.73438 519.27344 L 203.04492 519.27344 z "
       transform="scale(0.26458333)"
       id="rect3713-6-5" />
    <path
       inkscape:connector-curvature="0"
       id="rect3713-3"
       d="m 156.18814,145.39939 h -2.90822 c -1.41278,0 -2.55015,-1.09741 -2.55015,-2.46056 V 97.222263 c 0,-1.36315 1.13737,-2.460559 2.55015,-2.460559 h 2.90822 c 1.41278,0 2.55015,1.097409 2.55015,2.460559 v 45.716567 c 0,1.36315 -1.13737,2.46056 -2.55015,2.46056 z"
       style="stroke-width:0.165692;fill:#ffcc00" />
    <path
       style="stroke-width:0.62623751;fill:#ffcc00"
       d="M 525.61914 358.1543 C 520.27954 358.1543 515.98047 362.30302 515.98047 367.45508 L 515.98047 468.26953 A 151.1811 151.1811 0 0 1 546.25 539.00977 L 546.25 367.45508 C 546.25 362.30302 541.95097 358.1543 536.61133 358.1543 L 525.61914 358.1543 z "
       transform="scale(0.26458333)"
       id="rect3713-6-56" />
    <path
       style="stroke-width:0.62623751;fill:#ffcc00"
       d="M 471.91406 358.1543 C 466.57446 358.1543 462.27539 362.30302 462.27539 367.45508 L 462.27539 425.17773 A 151.1811 151.1811 0 0 1 492.54297 444.33789 L 492.54297 367.45508 C 492.54297 362.30302 488.24589 358.1543 482.90625 358.1543 L 471.91406 358.1543 z "
       transform="scale(0.26458333)"
       id="rect3713-7-2" />
    <path
       style="stroke-width:0.62623751;fill:#ffcc00"
       d="M 418.20703 358.1543 C 412.86739 358.1543 408.56836 362.30302 408.56836 367.45508 L 408.56836 410.66406 A 151.1811 151.1811 0 0 1 438.83789 416.14258 L 438.83789 367.45508 C 438.83789 362.30302 434.53886 358.1543 429.19922 358.1543 L 418.20703 358.1543 z "
       transform="scale(0.26458333)"
       id="rect3713-6-5-9" />
    <path
       inkscape:connector-curvature="0"
       id="rect3713-1"
       d="m 108.10061,199.68815 v -2.90823 c 0,-1.41277 1.0974,-2.55013 2.46055,-2.55013 h 45.71657 c 1.36315,0 2.46056,1.13736 2.46056,2.55013 v 2.90823 c 0,1.41278 -1.09741,2.55015 -2.46056,2.55015 h -45.71657 c -1.36315,0 -2.46055,-1.13737 -2.46055,-2.55015 z"
       style="stroke-width:0.165692;fill:#000042;fill-opacity:1" />
    <path
       style="stroke-width:0.62623751;fill:#000042;fill-opacity:1"
       d="M 489.83789 680.39062 A 151.1811 151.1811 0 0 1 419.11914 710.6582 L 590.65625 710.6582 C 595.80831 710.6582 599.95508 706.36113 599.95508 701.02148 L 599.95508 690.0293 C 599.95508 684.68966 595.80831 680.39062 590.65625 680.39062 L 489.83789 680.39062 z "
       transform="scale(0.26458333)"
       id="rect3713-6-2" />
    <path
       style="stroke-width:0.62623751;fill:#000042;fill-opacity:1"
       d="M 532.93164 626.68555 A 151.1811 151.1811 0 0 1 526.09961 639.32617 A 151.1811 151.1811 0 0 1 525.25 640.71289 A 151.1811 151.1811 0 0 1 518.10547 651.25195 A 151.1811 151.1811 0 0 1 513.77539 656.95117 A 151.1811 151.1811 0 0 1 513.77344 656.95312 L 590.65625 656.95312 C 595.80831 656.95312 599.95508 652.65409 599.95508 647.31445 L 599.95508 636.32227 C 599.95508 630.98262 595.80831 626.68555 590.65625 626.68555 L 532.93164 626.68555 z "
       transform="scale(0.26458333)"
       id="rect3713-7-7" />
    <path
       style="stroke-width:0.62623751;fill:#000042;fill-opacity:1"
       d="M 547.44531 572.97852 A 151.1811 151.1811 0 0 1 541.9668 603.24609 L 590.65625 603.24609 C 595.80831 603.24609 599.95508 598.94902 599.95508 593.60938 L 599.95508 582.61719 C 599.95508 577.27755 595.80831 572.97852 590.65625 572.97852 L 547.44531 572.97852 z "
       transform="scale(0.26458333)"
       id="rect3713-6-5-0" />
    <path
       inkscape:connector-curvature="0"
       id="rect3713-3-9"
       d="m 53.811846,151.6006 h 2.908223 c 1.412782,0 2.550145,1.09741 2.550145,2.46056 v 45.71657 c 0,1.36315 -1.137363,2.46056 -2.550145,2.46056 h -2.908223 c -1.412782,0 -2.550145,-1.09741 -2.550145,-2.46056 v -45.71657 c 0,-1.36315 1.137363,-2.46056 2.550145,-2.46056 z"
       style="stroke-width:0.165692;fill:#ffcc00" />
    <path
       style="stroke-width:0.62623751;fill:#ffcc00"
       d="M 247.45117 583.50977 L 247.45117 755.06641 C 247.45117 760.21847 251.75022 764.36523 257.08984 764.36523 L 268.08203 764.36523 C 273.42166 764.36523 277.71875 760.21847 277.71875 755.06641 L 277.71875 654.24805 A 151.1811 151.1811 0 0 1 247.45117 583.50977 z "
       transform="scale(0.26458333)"
       id="rect3713-6-56-3" />
    <path
       style="stroke-width:0.62623751;fill:#ffcc00"
       d="M 301.15625 678.18164 L 301.15625 755.06641 C 301.15625 760.21847 305.45528 764.36523 310.79492 764.36523 L 321.78711 764.36523 C 327.12675 764.36523 331.42578 760.21847 331.42578 755.06641 L 331.42578 697.3418 A 151.1811 151.1811 0 0 1 301.15625 678.18164 z "
       transform="scale(0.26458333)"
       id="rect3713-7-2-6" />
    <path
       style="stroke-width:0.62623751;fill:#ffcc00"
       d="M 354.86328 706.37695 L 354.86328 755.06641 C 354.86328 760.21847 359.16233 764.36523 364.50195 764.36523 L 375.49414 764.36523 C 380.8338 764.36523 385.13086 760.21847 385.13086 755.06641 L 385.13086 711.85352 A 151.1811 151.1811 0 0 1 354.86328 706.37695 z "
       transform="scale(0.26458333)"
       id="rect3713-6-5-9-0" />
    <rect
       id="rect3790"
       width="12.246237"
       height="99.999985"
       x="80.899605"
       y="-164.72104"
       rx="3.9999974"
       ry="3.9999974"
       style="stroke-width:0.26458332"
       transform="scale(-1)" />
    <path
       style="fill:#000042;stroke-width:0.93125129;fill-opacity:1"
       d="M 397.20312 438.07227 A 122.83465 122.83465 0 0 0 274.36914 560.90625 A 122.83465 122.83465 0 0 0 397.20312 683.74023 A 122.83465 122.83465 0 0 0 520.03906 560.90625 A 122.83465 122.83465 0 0 0 397.20312 438.07227 z M 396.84961 466.77148 A 94.488189 94.488189 0 0 1 491.33789 561.25977 A 94.488189 94.488189 0 0 1 396.84961 655.74805 A 94.488189 94.488189 0 0 1 302.36133 561.25977 A 94.488189 94.488189 0 0 1 396.84961 466.77148 z "
       transform="scale(0.26458333)"
       id="circle3867" />
    <circle
       style="fill:#ffcc00;stroke-width:0.13267347"
       cy="148.5"
       cx="105"
       id="circle3871"
       r="17.5" />
    <rect
       id="rect3790-6"
       width="12.246237"
       height="99.999985"
       x="-68.434891"
       y="-76.440193"
       rx="3.9999974"
       ry="3.9999974"
       style="stroke-width:0.26458332"
       transform="rotate(-90)" />
    <rect
       style="fill:#ffcc00;stroke-width:0.26362994"
       id="rect3978"
       width="23.418461"
       height="8"
       x="63.83419"
       y="84.655045"
       rx="3.9999974"
       ry="4" />
    <path
       sodipodi:type="star"
       style="fill:#ffff00;stroke-width:0.31026128"
       id="path3980"
       sodipodi:sides="5"
       sodipodi:cx="333.36288"
       sodipodi:cy="118.53991"
       sodipodi:r1="20.737291"
       sodipodi:r2="10.368647"
       sodipodi:arg1="-0.348771"
       sodipodi:arg2="0.27954753"
       inkscape:flatsided="false"
       inkscape:rounded="0"
       inkscape:randomized="0"
       d="m 352.85165,111.45308 -9.52263,9.94775 2.7962,13.48405 -12.40353,-5.98253 -11.96002,6.82613 1.85683,-13.64516 -10.18789,-9.26526 13.55111,-2.45064 5.66355,-12.552382 6.51822,12.130582 z"
       inkscape:transform-center-x="14.395399"
       inkscape:transform-center-y="-28.934312" />
  </g>
</svg>
