<svg xmlns="http://www.w3.org/2000/svg" viewBox="0 0 167.1 38.3">
  <path fill="#8d00ad" d="M19.1 1c1.4.5 2.8 1.3 4.2 2.4.3.2.5.5.6.7s.1.5.1.8c0 .5-.2.9-.5 1.2-.4.3-.8.5-1.2.5-.5 0-.9-.2-1.3-.5-1-.9-2-1.5-3-1.9s-2.2-.6-3.7-.6c-1.9 0-3.7.5-5.3 1.5S6.1 7.5 5.2 9.2c-1 1.7-1.4 3.6-1.4 5.7s.5 4 1.4 5.7 2.2 3.1 3.8 4.1 3.4 1.5 5.3 1.5c2.4 0 4.6-.8 6.8-2.4.4-.3.8-.4 1.2-.4.5 0 .9.2 1.2.5.3.3.5.8.5 1.3s-.2 1-.6 1.4c-2.7 2.1-5.7 3.2-9.1 3.2-2.6 0-5.1-.7-7.2-2-2.2-1.3-3.9-3.1-5.2-5.4C.6 20.1 0 17.6 0 14.9s.6-5.2 1.9-7.5 3-4 5.2-5.4c2.2-1.3 4.6-2 7.2-2 1.8.2 3.5.5 4.8 1zm23.5 9.4c1.5.9 2.8 2.1 3.6 3.6.9 1.6 1.3 3.3 1.3 5.3s-.4 3.7-1.3 5.3c-.9 1.6-2.1 2.8-3.6 3.6s-3.3 1.3-5.3 1.3-3.7-.4-5.3-1.3c-1.6-.9-2.8-2.1-3.6-3.6-.9-1.6-1.3-3.3-1.3-5.3s.4-3.8 1.3-5.3c.9-1.6 2.1-2.8 3.6-3.6 1.6-.9 3.3-1.3 5.3-1.3s3.8.5 5.3 1.3zM34 13.3c-1 .6-1.8 1.4-2.3 2.5-.6 1.1-.9 2.3-.9 3.6s.3 2.5.9 3.6c.6 1 1.4 1.9 2.3 2.5s2.1.9 3.4.9c1.3 0 2.4-.3 3.4-.9s1.8-1.4 2.3-2.5c.6-1 .8-2.2.8-3.6s-.3-2.5-.8-3.6c-.6-1.1-1.3-1.9-2.3-2.5s-2.1-.9-3.4-.9c-1.3 0-2.4.3-3.4.9zM53 1.1c.3-.3.8-.5 1.3-.5s1 .2 1.3.5.5.8.5 1.3v20.2c0 .9.2 1.7.5 2.3s.8.9 1.3.9h.9c.5 0 .9.2 1.2.5s.5.8.5 1.3-.2 1-.7 1.3-1.1.5-1.8.5h-.1c-1.1 0-2-.3-2.9-.9-.9-.6-1.5-1.4-2-2.4s-.7-2.2-.7-3.5V2.5c.2-.6.3-1 .7-1.4zm11.1 0c.3-.3.8-.5 1.3-.5s1 .2 1.3.5.5.8.5 1.3v20.2c0 .9.2 1.7.5 2.3s.8.9 1.3.9h.9c.5 0 .9.2 1.2.5.3.3.5.8.5 1.3s-.2 1-.7 1.3-1.1.5-1.8.5H69c-1.1 0-2-.3-2.9-.9-.9-.6-1.5-1.4-2-2.4s-.7-2.2-.7-3.5V2.5c.2-.6.3-1 .7-1.4zm24.6 9.3c1.5.9 2.8 2.1 3.6 3.6.9 1.6 1.3 3.3 1.3 5.3s-.4 3.7-1.3 5.3-2.1 2.8-3.6 3.6-3.3 1.3-5.3 1.3-3.7-.4-5.3-1.3c-1.6-.9-2.8-2.1-3.6-3.6-.9-1.6-1.3-3.3-1.3-5.3s.4-3.8 1.3-5.3c.9-1.6 2.1-2.8 3.6-3.6 1.6-.9 3.3-1.3 5.3-1.3s3.7.5 5.3 1.3zm-8.6 2.9c-1 .6-1.8 1.4-2.3 2.5-.6 1.1-.9 2.3-.9 3.6s.3 2.5.9 3.6c.6 1 1.4 1.9 2.3 2.5s2.1.9 3.4.9 2.4-.3 3.4-.9 1.8-1.4 2.3-2.5c.6-1 .8-2.2.8-3.6s-.3-2.5-.8-3.6c-.6-1.1-1.3-1.9-2.3-2.5s-2.1-.9-3.4-.9-2.4.3-3.4.9z"/>
  <path d="M113.6 10.5c1.5.9 2.8 2.1 3.7 3.7.9 1.6 1.4 3.3 1.4 5.2v16.9c0 .6-.2 1-.5 1.4-.3.3-.8.5-1.4.5-.5 0-1-.2-1.4-.5s-.5-.8-.5-1.4v-10c-.9 1.1-1.9 1.9-3.1 2.5s-2.6.9-4 .9c-1.8 0-3.4-.4-4.8-1.3s-2.6-2.1-3.4-3.7c-.8-1.6-1.2-3.3-1.2-5.2s.4-3.7 1.3-5.2c.9-1.6 2.1-2.8 3.7-3.7s3.3-1.3 5.2-1.3c1.7-.2 3.5.3 5 1.2zm-1.8 14.9c1-.6 1.8-1.4 2.3-2.5.6-1 .8-2.2.8-3.5s-.3-2.5-.8-3.6c-.6-1.1-1.4-1.9-2.3-2.5-1-.6-2.1-.9-3.3-.9-1.2 0-2.3.3-3.3.9-1 .6-1.8 1.4-2.4 2.5s-.9 2.2-.9 3.6c0 1.3.3 2.5.9 3.5s1.4 1.9 2.4 2.5 2.1.9 3.3.9c1.2 0 2.3-.3 3.3-.9z" fill="#29cfd3"/>
  <path fill="#8d00ad" d="M143.3 9.7c.3.3.5.8.5 1.4v16.5c0 .5-.2 1-.5 1.3s-.8.5-1.4.5c-.5 0-1-.2-1.4-.5s-.5-.8-.5-1.3v-.4c-.8.8-1.7 1.4-2.8 1.8-1.1.4-2.2.6-3.5.6-1.7 0-3.2-.4-4.6-1.1-1.4-.7-2.4-1.8-3.2-3.2s-1.1-3.1-1.1-5.1v-9.1c0-.5.2-1 .5-1.4.4-.4.8-.5 1.3-.5s1 .2 1.4.5c.4.3.5.8.5 1.4v9.1c0 2 .5 3.5 1.6 4.5s2.5 1.5 4.3 1.5c1 0 2-.2 2.8-.6.9-.4 1.5-1 2-1.7s.7-1.5.7-2.4V11.1c0-.6.2-1 .5-1.4s.8-.5 1.4-.5c.7 0 1.2.2 1.5.5zm23.8 1.2c0 .2-.1.5-.2.9l-11.3 25.4c-.3.8-.8 1.1-1.4 1.1-.2 0-.5-.1-.9-.2-.7-.3-1.1-.8-1.1-1.4 0-.3.1-.6.2-.9l3.7-8.3-8.3-15.8c-.1-.2-.2-.5-.2-.8s.1-.6.3-.9.5-.5.8-.6c.2-.1.5-.1.7-.1.7 0 1.2.3 1.6 1l6.8 13.5 6-13.4c.3-.7.8-1.1 1.4-1.1.3 0 .6.1.9.2.6.2 1 .7 1 1.4z"/>
</svg>
